<svg xmlns="http://www.w3.org/2000/svg" version="1.1" xmlns:xlink="http://www.w3.org/1999/xlink" xmlns:svgjs="http://svgjs.com/svgjs" width="1440" height="1000" preserveAspectRatio="none" viewBox="0 0 1440 1000"><g mask="url(&quot;#SvgjsMask1018&quot;)" fill="none"><rect width="1440" height="1000" x="0" y="0" fill="#0e2a47"></rect><path d="M567.005,829.932C602.505,829.108,636.126,813.757,654.972,783.661C675.07,751.566,680.777,710.913,662.202,677.912C643.315,644.356,605.493,626.205,567.005,627.375C530.449,628.487,500.009,651.966,481.335,683.412C462.191,715.65,452.747,755.547,471.672,787.914C490.459,820.045,529.795,830.795,567.005,829.932" fill="rgba(28, 83, 142, 0.4)" class="triangle-float3"></path><path d="M1132.465,710.295C1211.325,709.455,1280.044,661.41,1319.571,593.166C1359.201,524.744,1367.688,440.635,1328.393,372.021C1288.878,303.023,1211.977,266.477,1132.465,266.458C1052.917,266.439,976.637,303.321,936.371,371.925C895.626,441.346,897.965,527.582,938.326,597.227C978.572,666.673,1052.205,711.15,1132.465,710.295" fill="rgba(28, 83, 142, 0.4)" class="triangle-float1"></path><path d="M1491.954,1073.325C1588.691,1074.606,1690.457,1048.965,1740.695,966.287C1792.534,880.975,1780.204,771.416,1726.563,687.225C1676.71,608.979,1584.674,572.599,1491.954,575.881C1405.092,578.955,1330.182,628.962,1284.448,702.873C1235.81,781.477,1209.193,879.203,1254.366,959.848C1300.336,1041.917,1397.895,1072.08,1491.954,1073.325" fill="rgba(28, 83, 142, 0.4)" class="triangle-float2"></path><path d="M235.63,359.543C288.141,360.576,337.9,331.399,362.259,284.868C385.13,241.18,372.377,189.725,346.509,147.742C322.094,108.117,282.129,81.386,235.63,79.352C185.143,77.144,132.23,93.71,106.571,137.246C80.594,181.323,91.66,235.801,117.348,280.048C142.912,324.08,184.725,358.541,235.63,359.543" fill="rgba(28, 83, 142, 0.4)" class="triangle-float1"></path><path d="M1244.018,465.993C1278.402,465.044,1309.493,446.997,1327.195,417.504C1345.462,387.07,1351.076,348.648,1332.662,318.303C1314.796,288.862,1278.426,281.882,1244.018,280.438C1205.897,278.838,1162.159,278.216,1141.476,310.279C1119.672,344.08,1130.37,388.731,1152.492,422.324C1172.418,452.582,1207.802,466.992,1244.018,465.993" fill="rgba(28, 83, 142, 0.4)" class="triangle-float3"></path><path d="M1235.852,1110.986C1290.044,1108.749,1328.159,1063.023,1353.548,1015.094C1377.016,970.791,1383.057,919.922,1360.882,874.957C1335.729,823.952,1292.716,775.594,1235.852,776.436C1179.893,777.264,1143.861,829.428,1117.072,878.565C1091.765,924.982,1075.97,978.483,1100.029,1025.56C1126.116,1076.605,1178.576,1113.351,1235.852,1110.986" fill="rgba(28, 83, 142, 0.4)" class="triangle-float3"></path><path d="M176.611,623.133C219.616,623.302,270.143,627.287,292.489,590.543C315.293,553.046,291.957,507.722,269.857,469.805C247.977,432.266,219.986,394.283,176.611,391.729C129.527,388.957,85.777,416.736,62.187,457.579C38.59,498.434,35.478,550.825,62.303,589.637C86.499,624.644,134.056,622.965,176.611,623.133" fill="rgba(28, 83, 142, 0.4)" class="triangle-float2"></path><path d="M432.324,279.446C460.381,279.883,484.509,262.866,499.887,239.395C517.219,212.942,529.566,180.679,515.637,152.287C500.298,121.021,467.139,100.794,432.324,101.681C398.808,102.535,370.358,126.03,356.051,156.351C343.562,182.819,352.896,212.469,368.311,237.346C382.729,260.614,404.954,279.02,432.324,279.446" fill="rgba(28, 83, 142, 0.4)" class="triangle-float3"></path></g><defs><mask id="SvgjsMask1018"><rect width="1440" height="1000" fill="#ffffff"></rect></mask><style>
            @keyframes float1 {
                0%{transform: translate(0, 0)}
                50%{transform: translate(-10px, 0)}
                100%{transform: translate(0, 0)}
            }

            .triangle-float1 {
                animation: float1 5s infinite;
            }

            @keyframes float2 {
                0%{transform: translate(0, 0)}
                50%{transform: translate(-5px, -5px)}
                100%{transform: translate(0, 0)}
            }

            .triangle-float2 {
                animation: float2 4s infinite;
            }

            @keyframes float3 {
                0%{transform: translate(0, 0)}
                50%{transform: translate(0, -10px)}
                100%{transform: translate(0, 0)}
            }

            .triangle-float3 {
                animation: float3 6s infinite;
            }
        </style></defs></svg>